<svg width="256" height="22" viewBox="0 0 256 22" fill="none" xmlns="http://www.w3.org/2000/svg">
<path fill-rule="evenodd" clip-rule="evenodd" d="M40.0427 5.93102C41.7976 5.93102 43.2118 6.37817 44.2852 7.27246C45.3587 8.16675 45.9327 9.38581 46.0074 10.9296H42.815C42.759 10.233 42.479 9.67763 41.975 9.26343C41.4709 8.84923 40.7895 8.64213 39.9307 8.64213C39.0906 8.64213 38.4466 8.80217 37.9985 9.12223C37.5505 9.44229 37.3264 9.8659 37.3264 10.3931C37.3264 10.8073 37.4758 11.1556 37.7745 11.438C38.0732 11.7204 38.4372 11.9416 38.8666 12.1016C39.296 12.2617 39.9307 12.464 40.7708 12.7088C41.8909 13.01 42.8104 13.316 43.5291 13.6266C44.2479 13.9373 44.8686 14.3938 45.3913 14.9963C45.9141 15.5988 46.1847 16.3989 46.2034 17.3968C46.2034 18.2816 45.9607 19.0724 45.4753 19.769C44.9899 20.4656 44.3039 21.0116 43.4171 21.4069C42.5303 21.8023 41.4896 22 40.2948 22C39.0813 22 37.9939 21.7764 37.0324 21.3363C36.071 20.8939 35.3102 20.2914 34.7502 19.5289C34.1901 18.7664 33.8914 17.9145 33.8541 16.9732H37.1584C37.2144 17.6321 37.5271 18.1828 38.0965 18.6252C38.6659 19.0677 39.38 19.2889 40.2388 19.2889C41.1349 19.2889 41.8303 19.1147 42.325 18.7664C42.8197 18.4181 43.0671 17.971 43.0671 17.425C43.0671 16.8414 42.7917 16.4083 42.241 16.1259C41.6903 15.8435 40.8175 15.5329 39.6227 15.194C38.4652 14.8739 37.5225 14.5633 36.7944 14.262C36.0663 13.9608 35.4362 13.4995 34.9042 12.8782C34.3721 12.2569 34.1061 11.438 34.1061 10.4213C34.1061 9.59291 34.3488 8.83511 34.8342 8.14792C35.3196 7.46073 36.015 6.91945 36.9204 6.52408C37.8258 6.12871 38.8666 5.93102 40.0427 5.93102ZM122.203 5.93102C123.659 5.93102 124.957 6.25109 126.095 6.89121C127.234 7.53133 128.121 8.43033 128.756 9.5882C129.39 10.7461 129.708 12.0781 129.708 13.5843C129.708 14.1679 129.671 14.6951 129.596 15.1657H117.807C117.9 16.4083 118.355 17.4062 119.179 18.1593C120 18.9123 121.008 19.2889 122.203 19.2889C123.921 19.2889 125.134 18.564 125.843 17.1144H129.288C128.821 18.5452 127.976 19.7172 126.754 20.6303C125.531 21.5434 124.014 22 122.203 22C120.728 22 119.407 21.6658 118.241 20.9975C117.074 20.3291 116.159 19.3877 115.496 18.1734C114.834 16.959 114.502 15.5517 114.502 13.9514C114.502 12.3511 114.824 10.9438 115.468 9.7294C116.112 8.51505 117.018 7.5784 118.185 6.91945C119.351 6.2605 120.691 5.93102 122.203 5.93102ZM89.1592 5.93055C90.634 5.93055 91.9688 6.26003 93.1636 6.91898C94.3584 7.57793 95.3012 8.51929 95.9919 9.74305C96.6827 10.9668 97.028 12.3694 97.028 13.9509C97.028 15.5324 96.6733 16.935 95.9639 18.1588C95.2545 19.3826 94.2884 20.3286 93.0656 20.997C91.8428 21.6653 90.494 21.9995 89.0192 21.9995C87.563 21.9995 86.2469 21.6653 85.0707 20.997C83.8946 20.3286 82.9705 19.3873 82.2984 18.1729C81.6264 16.9586 81.2903 15.5512 81.2903 13.9509C81.2903 12.3694 81.6357 10.9668 82.3264 9.74305C83.0172 8.51929 83.9599 7.57793 85.1547 6.91898C86.3495 6.26003 87.6843 5.93055 89.1592 5.93055ZM249.615 5.84583C251.464 5.84583 252.938 6.3118 254.04 7.24375C255.141 8.17569 255.748 9.4324 255.86 11.0139H252.108C252.052 10.3926 251.793 9.89838 251.337 9.53125C250.88 9.16412 250.269 8.98055 249.503 8.98055C248.792 8.98055 248.248 9.11234 247.865 9.37592C247.482 9.6395 247.291 10.0066 247.291 10.4773C247.291 11.0045 247.552 11.4045 248.075 11.6775C248.596 11.9505 249.41 12.2282 250.511 12.5106C251.632 12.7931 252.556 13.0849 253.284 13.3861C254.012 13.6873 254.642 14.1533 255.174 14.784C255.706 15.4147 255.979 16.2478 256 17.2833C256 18.187 255.753 18.9966 255.258 19.712C254.763 20.4275 254.054 20.9876 253.13 21.3924C252.206 21.7971 251.127 21.9995 249.895 21.9995C248.626 21.9995 247.487 21.7689 246.479 21.3076C245.469 20.8464 244.673 20.2204 244.085 19.4296C243.497 18.6389 243.175 17.7634 243.119 16.8032H247.067C247.139 17.4057 247.436 17.9046 247.949 18.3C248.463 18.6954 249.102 18.893 249.867 18.893C250.612 18.893 251.195 18.7424 251.618 18.4412C252.038 18.14 252.248 17.754 252.248 17.2833C252.248 16.775 251.989 16.3937 251.478 16.1396C250.964 15.8854 250.147 15.6077 249.027 15.3065C247.87 15.0241 246.92 14.7322 246.185 14.431C245.448 14.1298 244.813 13.6685 244.281 13.0472C243.749 12.4259 243.483 11.5881 243.483 10.5338C243.483 9.66774 243.728 8.877 244.225 8.16157C244.719 7.44614 245.429 6.88132 246.351 6.46713C247.277 6.05293 248.364 5.84583 249.615 5.84583ZM170.17 5.84583C171.328 5.84583 172.343 6.08117 173.211 6.55185C174.079 7.02253 174.774 7.61558 175.295 8.33102V6.1H179.245V21.7454H175.295V19.4579C174.791 20.1921 174.098 20.7993 173.211 21.2794C172.322 21.7595 171.3 21.9995 170.142 21.9995C168.838 21.9995 167.645 21.6606 166.572 20.9829C165.498 20.3051 164.651 19.3496 164.023 18.1164C163.4 16.8832 163.088 15.4665 163.088 13.8662C163.088 12.2847 163.4 10.8821 164.023 9.65833C164.651 8.43456 165.498 7.49321 166.572 6.83426C167.645 6.17531 168.847 5.84583 170.17 5.84583ZM67.6535 0.847222V8.50046C68.1949 7.74737 68.937 7.13078 69.8798 6.65069C70.8225 6.1706 71.8727 5.93055 73.0301 5.93055C74.3929 5.93055 75.6251 6.26003 76.7265 6.91898C77.828 7.57793 78.6961 8.51458 79.3308 9.72893C79.9655 10.9433 80.2829 12.3318 80.2829 13.8944C80.2829 15.4571 79.9655 16.855 79.3308 18.0882C78.6961 19.3214 77.8233 20.2816 76.7125 20.9687C75.6017 21.6559 74.3743 21.9995 73.0301 21.9995C71.8353 21.9995 70.7759 21.7642 69.8518 21.2935C68.9277 20.8228 68.1949 20.2204 67.6535 19.4861V21.7454H64.4612V0.847222H67.6535ZM224.946 5.84536C226.421 5.84536 227.739 6.16542 228.906 6.80555C230.073 7.44567 230.981 8.35408 231.622 9.53078C232.269 10.7075 232.589 12.0583 232.589 13.5833C232.589 14.1481 232.554 14.6565 232.477 15.1083H221.135C221.229 16.2379 221.621 17.1228 222.311 17.7629C223.002 18.4031 223.852 18.7231 224.862 18.7231C226.318 18.7231 227.352 18.0924 227.97 16.831H232.196C231.751 18.3372 230.892 19.5751 229.623 20.5447C228.351 21.5166 226.794 21.9991 224.946 21.9991C223.45 21.9991 222.111 21.6649 220.925 20.9965C219.74 20.3281 218.816 19.3821 218.155 18.1583C217.493 16.9346 217.161 15.5225 217.161 13.9222C217.161 12.3054 217.488 10.884 218.141 9.65786C218.792 8.43409 219.709 7.49509 220.886 6.83379C222.062 6.17719 223.415 5.84536 224.946 5.84536ZM3.38604 2.11829L7.42081 18.1025L11.787 2.11829H15.3737L19.4318 18.0178L23.4946 2.11829H26.9086L21.1423 21.7456H17.5299L13.4415 6.89097L9.09866 21.7456L5.51427 21.7738L0 2.11829H3.38604ZM242.444 5.87454V10.0259H241.408C240.179 10.0259 239.247 10.3178 238.624 10.9014C237.997 11.485 237.684 12.5017 237.684 13.9514V21.7458H233.766V6.10047H237.684V8.52917C238.188 7.70078 238.846 7.05124 239.658 6.58056C240.473 6.10988 241.399 5.87454 242.444 5.87454ZM106.297 5.93079C107.511 5.93079 108.598 6.18496 109.559 6.69329C110.521 7.20162 111.272 7.95471 111.814 8.95255C112.355 9.95039 112.626 11.1553 112.626 12.5674V21.7456H109.461V13.0475C109.461 11.6542 109.116 10.5858 108.425 9.84213C107.735 9.09846 106.792 8.72662 105.597 8.72662C104.402 8.72662 103.455 9.09846 102.755 9.84213C102.055 10.5858 101.705 11.6542 101.705 13.0475V21.7456H98.5122V6.18496H101.705V7.96412C102.227 7.324 102.895 6.82508 103.707 6.46736C104.519 6.10965 105.382 5.93079 106.297 5.93079ZM189.519 5.87454V10.0259H188.483C187.253 10.0259 186.322 10.3178 185.699 10.9014C185.072 11.485 184.759 12.5017 184.759 13.9514V21.7458H180.841V6.10047H184.759V8.52917C185.263 7.70078 185.921 7.05124 186.733 6.58056C187.547 6.10988 188.474 5.87454 189.519 5.87454ZM51.7207 0.847457V7.99236C52.2621 7.33341 52.9482 6.82508 53.7789 6.46736C54.6097 6.10965 55.5198 5.93079 56.5092 5.93079C57.6854 5.93079 58.7355 6.18496 59.6596 6.69329C60.5837 7.20162 61.3118 7.95471 61.8438 8.95255C62.3759 9.95039 62.6419 11.1553 62.6419 12.5674V21.7456H59.4776V13.0475C59.4776 11.6542 59.1322 10.5858 58.4415 9.84213C57.7507 9.09846 56.8079 8.72662 55.6131 8.72662C54.4183 8.72662 53.4709 9.09846 52.7708 9.84213C52.0708 10.5858 51.7207 11.6542 51.7207 13.0475V21.7456H48.5284V0.847457H51.7207ZM31.6148 6.18472V21.7454H28.4224V6.18472H31.6148ZM155.945 2.0331C157.457 2.0331 158.745 2.29668 159.809 2.82384C160.874 3.351 161.672 4.07584 162.204 4.99837C162.736 5.9209 163 6.96581 163 8.13309C163 9.18742 162.754 10.1758 162.26 11.0984C161.765 12.0209 160.99 12.7646 159.936 13.3294C158.881 13.8942 157.551 14.1766 155.945 14.1766H152.669V21.7451H148.748V2.0331H155.945ZM196.159 2.23102V6.1H199.631V9.34768H196.159V16.9162C196.159 17.4434 196.285 17.8246 196.537 18.0599C196.789 18.2953 197.213 18.413 197.811 18.413H199.631V21.7454H197.167C193.862 21.7454 192.21 20.1262 192.21 16.888V9.34768H190.362V6.1H192.21V2.23102H196.159ZM209.934 5.87384C211.782 5.87384 213.278 6.46218 214.415 7.63888C215.554 8.81558 216.123 10.4582 216.123 12.5669V21.7451H212.205V13.1035C212.205 11.8609 211.894 10.9054 211.278 10.237C210.665 9.56867 209.822 9.23448 208.758 9.23448C207.675 9.23448 206.821 9.56867 206.198 10.237C205.57 10.9054 205.258 11.8609 205.258 13.1035V21.7451H201.337V6.09976H205.258V8.04837C205.78 7.3706 206.448 6.83873 207.262 6.45277C208.072 6.06681 208.963 5.87384 209.934 5.87384ZM72.33 8.72639C71.5273 8.72639 70.7665 8.93349 70.0478 9.34768C69.329 9.76188 68.7503 10.3643 68.3116 11.1551C67.8729 11.9458 67.6535 12.8778 67.6535 13.9509C67.6535 15.0241 67.8729 15.9607 68.3116 16.7609C68.7503 17.561 69.329 18.1682 70.0478 18.5824C70.7665 18.9966 71.5273 19.2037 72.33 19.2037C73.1515 19.2037 73.9215 18.9919 74.6403 18.5683C75.359 18.1447 75.9378 17.5281 76.3765 16.7185C76.8152 15.9089 77.0345 14.9676 77.0345 13.8944C77.0345 12.8213 76.8152 11.8941 76.3765 11.1127C75.9378 10.3314 75.359 9.73835 74.6403 9.33356C73.9215 8.92878 73.1515 8.72639 72.33 8.72639ZM89.1032 8.72639C88.2817 8.72639 87.521 8.92407 86.8209 9.31944C86.1208 9.71481 85.5655 10.3032 85.1547 11.0845C84.744 11.8658 84.5387 12.8213 84.5387 13.9509C84.5387 15.6265 84.9634 16.9209 85.8128 17.834C86.6622 18.7471 87.731 19.2037 89.0192 19.2037C89.8406 19.2037 90.6107 19.006 91.3294 18.6106C92.0481 18.2153 92.6316 17.6222 93.0796 16.8315C93.5277 16.0407 93.7517 15.0806 93.7517 13.9509C93.7517 12.8213 93.537 11.8658 93.1076 11.0845C92.6782 10.3032 92.1088 9.71481 91.3994 9.31944C90.69 8.92407 89.9246 8.72639 89.1032 8.72639ZM140.908 4.49028V9.96898H146.198V13.4143H140.908V18.893H137.212V13.4143H131.919V9.96898H137.212V4.49028H140.908ZM171.181 9.31944C170.45 9.31944 169.778 9.4983 169.162 9.85602C168.548 10.2137 168.047 10.7362 167.666 11.4234C167.284 12.1106 167.092 12.9248 167.092 13.8662C167.092 14.8076 167.284 15.6312 167.666 16.3373C168.047 17.0433 168.553 17.5846 169.176 17.9611C169.804 18.3376 170.469 18.5259 171.181 18.5259C171.906 18.5259 172.588 18.3424 173.225 17.9752C173.857 17.6081 174.361 17.0809 174.735 16.3937C175.108 15.7066 175.295 14.8829 175.295 13.9227C175.295 12.9625 175.108 12.1388 174.735 11.4516C174.361 10.7644 173.857 10.2373 173.225 9.87014C172.588 9.50301 171.906 9.31944 171.181 9.31944ZM122.063 8.64213C120.962 8.64213 120.019 8.99514 119.235 9.70116C118.451 10.4072 117.984 11.3627 117.835 12.5676H126.375C126.357 11.3815 125.937 10.4307 125.115 9.71528C124.292 8.99985 123.276 8.64213 122.063 8.64213ZM224.832 9.09304C223.861 9.09304 223.044 9.38957 222.381 9.98263C221.719 10.5757 221.313 11.3994 221.166 12.4537H228.528C228.509 11.437 228.145 10.6228 227.436 10.0109C226.729 9.39899 225.858 9.09304 224.832 9.09304ZM155.777 5.25254H152.669V10.9854H155.777C156.86 10.9854 157.66 10.7359 158.185 10.237C158.708 9.73811 158.969 9.0368 158.969 8.13309C158.969 6.21273 157.905 5.25254 155.777 5.25254ZM30.0466 0C30.6066 0 31.0827 0.197685 31.4747 0.593055C31.8668 0.988426 32.0628 1.47793 32.0628 2.06157C32.0628 2.64522 31.8668 3.13472 31.4747 3.53009C31.0827 3.92546 30.6066 4.12315 30.0466 4.12315C29.4679 4.12315 28.9825 3.92546 28.5904 3.53009C28.1984 3.13472 28.0024 2.64522 28.0024 2.06157C28.0024 1.47793 28.1984 0.988426 28.5904 0.593055C28.9825 0.197685 29.4679 0 30.0466 0Z" fill="#1B1A1A"/>
</svg>
